<svg viewBox="0 0 400 500" width="400" height="500" xmlns="http://www.w3.org/2000/svg">
  <defs></defs>
  <rect x="30" y="135" width="340" height="340" fill="#CCEFF0" id="qr"></rect>
  <path d="M 342.925 14 L 57.13 14 C 56.086 14 55.043 14 53.999 14 C 53.121 14 52.242 14 51.363 14.047 C 49.441 14.047 47.574 14.187 45.652 14.466 C 43.785 14.746 41.972 15.259 40.27 15.959 C 38.567 16.705 37.03 17.638 35.657 18.804 C 34.284 19.924 33.185 21.276 32.307 22.722 C 31.428 24.168 30.824 25.707 30.549 27.293 C 30.22 28.879 30.055 30.512 30.055 32.144 C 30.055 32.891 30 33.637 30 34.383 L 30 90.169 C 30 90.915 30 91.661 30.055 92.408 C 30.055 94.04 30.275 95.626 30.549 97.258 C 30.879 98.844 31.483 100.43 32.307 101.876 C 33.185 103.322 34.284 104.628 35.657 105.794 C 36.975 106.96 38.567 107.893 40.27 108.639 C 41.972 109.386 43.785 109.899 45.652 110.179 C 47.519 110.459 49.441 110.599 51.363 110.599 C 52.242 110.599 53.121 110.645 53.999 110.645 C 55.043 110.645 56.086 110.645 57.13 110.645 L 342.925 110.645 C 343.969 110.645 344.957 110.645 346 110.645 C 346.879 110.645 347.758 110.645 348.637 110.599 C 350.559 110.599 352.426 110.459 354.293 110.179 C 356.16 109.899 358.028 109.386 359.73 108.639 C 361.433 107.893 362.97 106.96 364.343 105.794 C 365.716 104.675 366.815 103.322 367.693 101.876 C 368.572 100.43 369.121 98.891 369.451 97.258 C 369.78 95.673 369.945 94.04 370 92.408 C 370 91.661 370 90.915 370 90.169 C 370 89.282 370 88.443 370 87.51 L 370 37.042 C 370 36.156 370 35.269 370 34.43 C 370 33.684 370 32.937 370 32.191 C 369.945 30.558 369.78 28.973 369.451 27.34 C 369.121 25.754 368.572 24.215 367.693 22.769 C 365.936 19.83 363.135 17.498 359.73 16.006 C 358.028 15.259 356.215 14.746 354.293 14.513 C 352.426 14.233 350.504 14.093 348.637 14.093 C 347.758 14.093 346.879 14.047 346 14.047 C 345.012 14 343.969 14 342.925 14 L 342.925 14 Z" style="fill: none; stroke-width: 6.21599px; stroke: rgb(0, 0, 0);"></path>
  <g transform="matrix(0.511776, 0, 0, 0.511776, 35.778648, -2.186672)">
    <path d="M209.2,66.7c7.5-0.5,14.1,5.1,14.6,12.6c0.1,0.9,0,1.8-0.1,2.7c0,9.9-5.3,15.5-14.5,15.5H198V66.7H209.2z M202.8,93.2 h5.8c5.3,0.3,9.9-3.8,10.3-9.1c0-0.7,0-1.3-0.1-2c0.7-5.3-3-10.2-8.3-11c-0.6-0.1-1.2-0.1-1.9-0.1h-5.8V93.2z"></path>
    <path d="M229.1,85.9c-0.6-6.1,3.9-11.5,9.9-12c6.1-0.6,11.5,3.9,12,9.9c0.1,0.7,0.1,1.4,0,2.1c0.6,6.1-3.8,11.5-9.9,12.1 c-6.1,0.6-11.5-3.8-12.1-9.9C229,87.3,229,86.6,229.1,85.9z M246.3,85.9c0-5-2.3-8-6.2-8c-4,0-6.2,3-6.2,8c0,5.1,2.2,8,6.2,8 C244.1,93.9,246.3,91,246.3,85.9L246.3,85.9z"></path>
    <path d="M280.3,97.6h-4.8l-4.8-17.2h-0.4l-4.8,17.2h-4.7l-6.4-23.3h4.7l4.2,17.8h0.3l4.8-17.8h4.4l4.8,17.8h0.4l4.2-17.8h4.6 L280.3,97.6z"></path>
    <path d="M292.1,74.3h4.4V78h0.3c1.2-2.7,4-4.4,7-4.1c4.2-0.3,7.8,2.8,8.1,7c0,0.6,0,1.1-0.1,1.7v15.1h-4.6V83.6 c0-3.7-1.6-5.6-5-5.6c-2.9-0.1-5.4,2.1-5.6,5.1c0,0.3,0,0.5,0,0.8v13.6h-4.6L292.1,74.3z"></path>
    <path d="M319.2,65.2h4.6v32.4h-4.6V65.2z"></path>
    <path d="M330.2,85.9c-0.6-6.1,3.9-11.5,9.9-12c6.1-0.6,11.5,3.9,12,9.9c0.1,0.7,0.1,1.4,0,2.1c0.6,6.1-3.9,11.5-9.9,12.1 c-6.1,0.6-11.5-3.9-12.1-9.9C330.1,87.3,330.1,86.6,330.2,85.9z M347.4,85.9c0-5-2.3-8-6.2-8c-4,0-6.2,3-6.2,8c0,5.1,2.2,8,6.2,8 C345.1,93.9,347.4,91,347.4,85.9z"></path>
    <path d="M357,91c0-4.2,3.1-6.6,8.7-7l6.3-0.4v-2c0-2.5-1.6-3.8-4.8-3.8c-2.6,0-4.3,0.9-4.9,2.6h-4.5c0.5-4,4.2-6.6,9.5-6.6 c5.8,0,9.1,2.9,9.1,7.8v15.9h-4.4v-3.3h-0.4c-1.5,2.4-4.2,3.8-7,3.7c-3.9,0.4-7.3-2.4-7.7-6.3C357,91.5,357,91.2,357,91z M372,89 V87l-5.7,0.4c-3.2,0.2-4.7,1.3-4.7,3.4c0,2.1,1.8,3.3,4.3,3.3c3,0.3,5.7-1.9,6-4.9C371.9,89.1,371.9,89.1,372,89z"></path>
    <path d="M382.6,85.9c0-7.4,3.8-12,9.7-12c3-0.1,5.8,1.5,7.1,4.1h0.3V65.2h4.6v32.4h-4.4v-3.7h-0.4c-1.5,2.6-4.3,4.2-7.3,4.1 C386.3,98,382.6,93.3,382.6,85.9z M387.3,85.9c0,4.9,2.3,7.9,6.2,7.9c3.9,0,6.3-3,6.3-7.9c0-4.9-2.4-7.9-6.3-7.9 C389.7,78,387.3,81,387.3,85.9L387.3,85.9z"></path>
    <path d="M423.3,85.9c-0.6-6.1,3.9-11.5,9.9-12c6.1-0.6,11.5,3.9,12,9.9c0.1,0.7,0.1,1.4,0,2.1c0.6,6.1-3.8,11.5-9.9,12.1 c-6.1,0.6-11.5-3.8-12.1-9.9C423.3,87.3,423.3,86.6,423.3,85.9z M440.6,85.9c0-5-2.3-8-6.2-8c-4,0-6.2,3-6.2,8c0,5.1,2.2,8,6.2,8 C438.3,93.9,440.6,91,440.6,85.9z"></path>
    <path d="M451.5,74.3h4.4V78h0.3c1.2-2.7,4-4.4,7-4.1c4.2-0.3,7.8,2.8,8.1,7c0,0.6,0,1.1-0.1,1.7v15.1h-4.6V83.6 c0-3.7-1.6-5.6-5-5.6c-2.9-0.1-5.4,2.1-5.6,5.1c0,0.3,0,0.5,0,0.8v13.6h-4.6V74.3z"></path>
    <path d="M497.2,68.5v5.9h5v3.9h-5v12c0,2.4,1,3.5,3.3,3.5c0.6,0,1.2,0,1.8-0.1v3.8c-0.8,0.1-1.7,0.2-2.5,0.2 c-5.1,0-7.1-1.8-7.1-6.3V78.3h-3.7v-3.9h3.7v-5.9H497.2z"></path>
    <path d="M508.6,65.2h4.6V78h0.4c1.3-2.7,4.1-4.4,7.1-4.2c4.2-0.2,7.8,3,8.1,7.2c0,0.5,0,1-0.1,1.4v15H524V83.7 c0-3.7-1.7-5.6-5-5.6c-3-0.2-5.6,2-5.9,5c0,0.3,0,0.6,0,0.9v13.6h-4.6L508.6,65.2z"></path>
    <path d="M555.4,91.3c-1.3,4.4-5.5,7.2-10.1,6.7c-5.8,0.2-10.7-4.5-10.9-10.3c0-0.6,0-1.2,0.1-1.7c-0.8-5.9,3.3-11.3,9.2-12.1 c0.5-0.1,1-0.1,1.5-0.1c6.5,0,10.4,4.4,10.4,11.7v1.6h-16.4v0.3c-0.3,3.4,2.2,6.4,5.6,6.7c0.2,0,0.4,0,0.6,0 c2.2,0.3,4.4-0.8,5.5-2.8L555.4,91.3z M539.2,83.8H551c0.2-3.1-2.1-5.8-5.2-6c-0.2,0-0.4,0-0.5,0c-3.3,0-6,2.6-6,5.9 C539.2,83.7,539.2,83.7,539.2,83.8L539.2,83.8z"></path>
  </g>
  <g id="_Group_3" transform="matrix(0.511776, 0, 0, 0.511776, 27.778641, -2.186671)">
    <path id="_Path_" d="M142.8,124.4c0.1-9.1,4.9-17.6,12.7-22.3c-4.9-7-12.9-11.3-21.5-11.6c-9-0.9-17.8,5.4-22.4,5.4 c-4.7,0-11.8-5.3-19.4-5.2c-10,0.3-19.2,5.9-24.1,14.7c-10.4,18-2.6,44.5,7.3,59c5,7.1,10.8,15.1,18.4,14.8 c7.5-0.3,10.2-4.8,19.3-4.8c8.9,0,11.5,4.8,19.3,4.6c8-0.1,13.1-7.2,17.9-14.4c3.6-5.1,6.3-10.7,8.2-16.6 C149,144.1,142.8,134.8,142.8,124.4z"></path>
    <path id="_Path_2" d="M128.1,80.9c4.4-5.2,6.5-12,6-18.8c-6.7,0.7-12.8,3.9-17.3,8.9c-4.4,5-6.6,11.5-6.2,18.1 C117.5,89.2,123.9,86.2,128.1,80.9z"></path>
  </g>
  <g transform="matrix(0.511776, 0, 0, 0.511776, 35.778641, -2.186671)">
    <path d="M232.3,161.9h-24.5l-5.9,17.4h-10.4l23.2-64.2h10.8l23.2,64.2h-10.5L232.3,161.9z M210.4,153.9h19.4l-9.6-28.2h-0.3 L210.4,153.9z"></path>
    <path d="M298.8,155.9c0,14.6-7.8,23.9-19.5,23.9c-6.1,0.3-11.8-2.9-14.7-8.2h-0.2v23.2h-9.6v-62.3h9.3v7.8h0.2 c3.1-5.3,8.8-8.5,14.9-8.3C291,132,298.8,141.4,298.8,155.9z M288.9,155.9c0-9.5-4.9-15.7-12.4-15.7c-7.3,0-12.3,6.4-12.3,15.7 c0,9.4,4.9,15.8,12.3,15.8C284,171.6,288.9,165.4,288.9,155.9L288.9,155.9z"></path>
    <path d="M350.4,155.9c0,14.6-7.8,23.9-19.5,23.9c-6.1,0.3-11.8-2.9-14.7-8.2h-0.2v23.2h-9.6v-62.3h9.3v7.8h0.2 c3.1-5.3,8.8-8.5,14.9-8.3C342.5,132,350.4,141.4,350.4,155.9z M340.5,155.9c0-9.5-4.9-15.7-12.4-15.7 c-7.3,0-12.3,6.4-12.3,15.7c0,9.4,4.9,15.8,12.3,15.8C335.6,171.6,340.5,165.4,340.5,155.9z"></path>
    <path d="M384.4,161.4c0.7,6.4,6.9,10.6,15.4,10.6c8.1,0,13.9-4.2,13.9-9.9c0-5-3.5-8-11.8-10l-8.3-2 c-11.8-2.8-17.3-8.4-17.3-17.3c0-11.1,9.7-18.7,23.4-18.7c13.6,0,22.9,7.6,23.2,18.7h-9.7c-0.6-6.4-5.9-10.3-13.6-10.3 c-7.7,0-13,3.9-13,9.6c0,4.5,3.4,7.2,11.7,9.3l7.1,1.7c13.2,3.1,18.7,8.4,18.7,17.8c0,12-9.6,19.5-24.8,19.5 c-14.2,0-23.9-7.4-24.5-19L384.4,161.4z"></path>
    <path d="M444.6,121.4v11.1h8.9v7.6h-8.9v25.8c0,4,1.8,5.9,5.7,5.9c1.1,0,2.1-0.1,3.2-0.2v7.6c-1.8,0.3-3.5,0.5-5.3,0.4 c-9.5,0-13.2-3.6-13.2-12.6v-26.8h-6.8v-7.6h6.8v-11.1H444.6z"></path>
    <path d="M458.7,155.9c0-14.7,8.7-24,22.2-24c13.6,0,22.2,9.3,22.2,24c0,14.8-8.6,24-22.2,24 C467.3,179.9,458.7,170.7,458.7,155.9z M493.3,155.9c0-10.1-4.6-16.1-12.4-16.1s-12.4,6-12.4,16.1c0,10.1,4.6,16.1,12.4,16.1 S493.3,166,493.3,155.9L493.3,155.9z"></path>
    <path d="M511,132.5h9.2v8h0.2c1.3-5.1,6-8.7,11.3-8.5c1.1,0,2.2,0.1,3.3,0.4v9c-1.4-0.4-2.9-0.6-4.3-0.6 c-5.3-0.2-9.9,3.9-10.1,9.3c0,0.5,0,1,0.1,1.5v27.8H511L511,132.5z"></path>
    <path d="M579.3,165.5c-1.3,8.5-9.6,14.3-20.2,14.3c-13.6,0-22.1-9.1-22.1-23.8c0-14.7,8.5-24.2,21.7-24.2 c13,0,21.1,8.9,21.1,23.1v3.3h-33.1v0.6c-0.6,6.7,4.4,12.6,11.1,13.2c0.5,0,1,0.1,1.5,0c4.7,0.4,9.1-2.2,10.8-6.6L579.3,165.5z M546.8,151.6h23.4c0.3-6.2-4.4-11.5-10.6-11.9c-0.3,0-0.6,0-0.9,0c-6.5,0-11.9,5.2-11.9,11.8 C546.8,151.5,546.8,151.5,546.8,151.6z"></path>
  </g>
</svg>
