<svg width="82px" height="82px" viewBox="0 0 82 82" fill="none" xmlns="http://www.w3.org/2000/svg">
    <defs></defs>
    <rect id="qr" x="11" y="11" width="60" height="60" fill="#CCEFF0"></rect>
    <path d="M 21 0 L 1 0 L 0 0 L 0 1 L 0 21 L 2 21 L 2 2 L 21 2 Z" style="fill: rgb(0, 0, 0);"></path>
    <path d="M 82 21 L 82 1 L 82 0 L 81 0 L 61 0 L 61 2 L 80 2 L 80 21 Z" style="fill: rgb(0, 0, 0);"></path>
    <path d="M 61 82 L 81 82 L 82 82 L 82 81 L 82 61 L 80 61 L 80 80 L 61 80 Z" style="fill: rgb(0, 0, 0);"></path>
    <path d="M 0 61 L 0 81 L 0 82 L 1 82 L 21 82 L 21 80 L 2 80 L 2 61 Z" style="fill: rgb(0, 0, 0);"></path>
</svg>