<svg viewBox="0 0 400 500" width="400px" height="500px" xmlns="http://www.w3.org/2000/svg">
  <defs></defs>
  <linearGradient id="SVGID_1_" gradientUnits="userSpaceOnUse" x1="1682.1077" y1="1339.4783" x2="1624.2924" y2="1309.6345" gradientTransform="matrix(0.725685, 0, 0, -1.40586, -666.184204, 2104.884521)">
    <stop offset="0" style="stop-color:#00A0FF"></stop>
    <stop offset="0.0066" style="stop-color:#00A1FF"></stop>
    <stop offset="0.2601" style="stop-color:#00BEFF"></stop>
    <stop offset="0.5122" style="stop-color:#00D2FF"></stop>
    <stop offset="0.7604" style="stop-color:#00DFFF"></stop>
    <stop offset="1" style="stop-color:#00E3FF"></stop>
  </linearGradient>
  <linearGradient id="SVGID_2_" gradientUnits="userSpaceOnUse" x1="1712.6624" y1="1274.8376" x2="1606.5613" y2="1274.8376" gradientTransform="matrix(0.570137, 0, 0, -0.48005, -391.866486, 861.985046)">
    <stop offset="0" style="stop-color:#FFE000"></stop>
    <stop offset="0.4087" style="stop-color:#FFBD00"></stop>
    <stop offset="0.7754" style="stop-color:#FFA500"></stop>
    <stop offset="1" style="stop-color:#FF9C00"></stop>
  </linearGradient>
  <linearGradient id="SVGID_3_" gradientUnits="userSpaceOnUse" x1="1707.4414" y1="1290.0475" x2="1646.682" y2="1211.2225" gradientTransform="matrix(0.936409, 0, 0, -0.721789, -1036.796997, 1186.885132)">
    <stop offset="0" style="stop-color:#FF3A44"></stop>
    <stop offset="1" style="stop-color:#C31162"></stop>
  </linearGradient>
  <linearGradient id="SVGID_4_" gradientUnits="userSpaceOnUse" x1="1660.6357" y1="1365.6676" x2="1687.767" y2="1330.4501" gradientTransform="matrix(0.936409, 0, 0, -0.721415, -1036.796997, 1185.659668)">
    <stop offset="0" style="stop-color:#32A071"></stop>
    <stop offset="0.0685" style="stop-color:#2DA771"></stop>
    <stop offset="0.4762" style="stop-color:#15CF74"></stop>
    <stop offset="0.8009" style="stop-color:#06E775"></stop>
    <stop offset="1" style="stop-color:#00F076"></stop>
  </linearGradient>
  <rect x="30" y="135" width="340" height="340" fill="#CCEFF0" id="qr"></rect>
  <g transform="matrix(1.003275, 0, 0, 1.003275, -471.637665, -187.655014)">
    <path class="st0" d="M 826.334 300 L 512.556 300 C 505.636 300 500 294.364 500 287.5 L 500 212.5 C 500 205.611 505.636 200 512.556 200 L 826.334 200 C 833.248 200 838.89 205.611 838.89 212.5 L 838.89 287.5 C 838.89 294.364 833.248 300 826.334 300 Z" style="clip-rule: evenodd; fill-rule: evenodd;"></path>
    <path class="st1" d="M 826.334 202.001 C 832.138 202.001 836.889 206.721 836.889 212.5 L 836.889 287.5 C 836.889 293.279 832.169 297.999 826.334 297.999 L 512.556 297.999 C 506.752 297.999 502.001 293.279 502.001 287.5 L 502.001 212.5 C 502.001 206.721 506.721 202.001 512.556 202.001 C 512.556 202.001 826.334 202.001 826.334 202.001 Z M 826.334 200 L 512.556 200 C 505.636 200 500 205.636 500 212.5 L 500 287.5 C 500 294.389 505.636 300 512.556 300 L 826.334 300 C 833.248 300 838.89 294.389 838.89 287.5 L 838.89 212.5 C 838.89 205.636 833.248 200 826.334 200 Z" style="clip-rule: evenodd; fill: rgb(166, 166, 166); fill-rule: evenodd;"></path>
    <path class="st2" d="M 678.529 233.08 C 676.266 233.08 674.358 232.288 672.849 230.729 C 671.353 229.214 670.517 227.126 670.555 224.994 C 670.555 222.718 671.328 220.792 672.849 219.264 C 674.352 217.706 676.259 216.914 678.522 216.914 C 680.761 216.914 682.668 217.706 684.202 219.264 C 685.723 220.842 686.496 222.768 686.496 224.994 C 686.471 227.276 685.698 229.202 684.202 230.723 C 682.699 232.294 680.792 233.08 678.529 233.08 Z M 611.191 233.08 C 608.978 233.08 607.057 232.3 605.486 230.761 C 603.928 229.227 603.136 227.288 603.136 225 C 603.136 222.712 603.928 220.773 605.486 219.239 C 607.026 217.7 608.946 216.92 611.191 216.92 C 612.288 216.92 613.354 217.138 614.377 217.581 C 615.38 218.011 616.197 218.597 616.802 219.314 L 616.951 219.495 L 615.262 221.153 L 615.087 220.948 C 614.133 219.813 612.855 219.258 611.166 219.258 C 609.657 219.258 608.342 219.794 607.257 220.854 C 606.166 221.92 605.611 223.317 605.611 225.006 C 605.611 226.696 606.166 228.092 607.257 229.158 C 608.342 230.218 609.657 230.754 611.166 230.754 C 612.774 230.754 614.127 230.218 615.181 229.158 C 615.804 228.535 616.191 227.662 616.328 226.559 L 610.91 226.559 L 610.91 224.227 L 618.653 224.227 L 618.684 224.439 C 618.741 224.832 618.797 225.237 618.797 225.611 C 618.797 227.762 618.148 229.501 616.864 230.786 C 615.405 232.307 613.497 233.08 611.191 233.08 Z M 700.723 232.749 L 698.335 232.749 L 691.022 221.047 L 691.085 223.155 L 691.085 232.743 L 688.697 232.743 L 688.697 217.251 L 691.421 217.251 L 691.496 217.369 L 698.373 228.392 L 698.31 226.291 L 698.31 217.251 L 700.723 217.251 L 700.723 232.749 Z M 660.586 232.749 L 658.167 232.749 L 658.167 219.582 L 653.971 219.582 L 653.971 217.251 L 664.775 217.251 L 664.775 219.582 L 660.58 219.582 L 660.58 232.749 Z M 652.001 232.749 L 649.588 232.749 L 649.588 217.251 L 652.001 217.251 L 652.001 232.749 Z M 638.441 232.749 L 636.029 232.749 L 636.029 219.582 L 631.833 219.582 L 631.833 217.251 L 642.637 217.251 L 642.637 219.582 L 638.441 219.582 L 638.441 232.749 Z M 630.305 232.724 L 621.054 232.724 L 621.054 217.251 L 630.305 217.251 L 630.305 219.582 L 623.473 219.582 L 623.473 223.834 L 629.638 223.834 L 629.638 226.141 L 623.473 226.141 L 623.473 230.393 L 630.305 230.393 L 630.305 232.724 Z M 674.62 229.127 C 675.698 230.206 677.007 230.748 678.529 230.748 C 680.093 230.748 681.371 230.218 682.438 229.127 C 683.497 228.067 684.034 226.677 684.034 225 C 684.034 223.323 683.497 221.926 682.444 220.873 C 681.365 219.794 680.05 219.252 678.535 219.252 C 676.97 219.252 675.692 219.782 674.632 220.873 C 673.572 221.933 673.036 223.323 673.036 225 C 673.036 226.677 673.566 228.074 674.62 229.127 L 674.62 229.127 Z" style="fill: rgb(255, 255, 255);"></path>
    <path class="st3" d="M 670.33 254.389 C 664.439 254.389 659.663 258.859 659.663 265.025 C 659.663 271.135 664.47 275.661 670.33 275.661 C 676.222 275.661 680.997 271.16 680.997 265.025 C 680.997 258.859 676.222 254.389 670.33 254.389 Z M 670.33 271.446 C 667.107 271.446 664.333 268.778 664.333 265 C 664.333 261.166 667.113 258.554 670.33 258.554 C 673.554 258.554 676.328 261.166 676.328 265 C 676.334 268.803 673.554 271.446 670.33 271.446 Z M 647.057 254.389 C 641.166 254.389 636.39 258.859 636.39 265.025 C 636.39 271.135 641.197 275.661 647.057 275.661 C 652.949 275.661 657.724 271.16 657.724 265.025 C 657.724 258.859 652.943 254.389 647.057 254.389 Z M 647.057 271.446 C 643.834 271.446 641.06 268.778 641.06 265 C 641.06 261.166 643.84 258.554 647.057 258.554 C 650.28 258.554 653.055 261.166 653.055 265 C 653.055 268.803 650.28 271.446 647.057 271.446 Z M 619.364 257.637 L 619.364 262.138 L 630.168 262.138 C 629.838 264.663 629.002 266.527 627.724 267.805 C 626.141 269.389 623.697 271.11 619.389 271.11 C 612.749 271.11 607.556 265.748 607.556 259.108 C 607.556 252.469 612.749 247.107 619.389 247.107 C 622.974 247.107 625.586 248.522 627.525 250.33 L 630.717 247.138 C 628.024 244.557 624.439 242.581 619.414 242.581 C 610.305 242.581 602.662 250 602.662 259.084 C 602.662 268.192 610.299 275.586 619.414 275.586 C 624.333 275.586 628.024 273.978 630.941 270.948 C 633.915 267.974 634.857 263.778 634.857 260.393 C 634.857 259.339 634.775 258.392 634.607 257.587 L 619.358 257.587 C 619.364 257.581 619.364 257.637 619.364 257.637 Z M 732.637 261.141 C 731.746 258.753 729.052 254.364 723.529 254.364 C 718.055 254.364 713.504 258.672 713.504 265 C 713.504 270.973 718.005 275.636 724.059 275.636 C 728.921 275.636 731.752 272.662 732.918 270.916 L 729.308 268.497 C 728.111 270.274 726.446 271.44 724.083 271.44 C 721.696 271.44 720.025 270.355 718.915 268.217 L 733.136 262.325 C 733.136 262.332 732.637 261.141 732.637 261.141 Z M 718.136 264.694 C 718.024 260.586 721.328 258.497 723.691 258.497 C 725.555 258.497 727.107 259.414 727.637 260.748 L 718.136 264.694 Z M 706.583 275 L 711.253 275 L 711.253 243.753 L 706.583 243.753 L 706.583 275 Z M 698.915 256.752 L 698.747 256.752 C 697.693 255.499 695.692 254.364 693.136 254.364 C 687.83 254.364 682.943 259.034 682.943 265.031 C 682.943 271.004 687.805 275.617 693.136 275.617 C 695.661 275.617 697.693 274.476 698.747 273.198 L 698.915 273.198 L 698.915 274.726 C 698.915 278.784 696.746 280.973 693.248 280.973 C 690.386 280.973 688.61 278.915 687.886 277.194 L 683.828 278.89 C 684.994 281.696 688.105 285.168 693.242 285.168 C 698.716 285.168 703.354 281.945 703.354 274.084 L 703.354 255 L 698.94 255 L 698.94 256.752 C 698.946 256.752 698.915 256.752 698.915 256.752 Z M 693.554 271.446 C 690.33 271.446 687.637 268.753 687.637 265.031 C 687.637 261.278 690.33 258.56 693.554 258.56 C 696.746 258.56 699.221 261.309 699.221 265.031 C 699.252 268.753 696.752 271.446 693.554 271.446 Z M 754.501 243.753 L 743.335 243.753 L 743.335 275 L 748.005 275 L 748.005 263.167 L 754.507 263.167 C 759.676 263.167 764.757 259.42 764.757 253.473 C 764.757 247.525 759.694 243.753 754.501 243.753 Z M 754.638 258.803 L 747.999 258.803 L 747.999 248.08 L 754.638 248.08 C 758.136 248.08 760.112 250.966 760.112 253.441 C 760.112 255.892 758.111 258.803 754.638 258.803 Z M 783.472 254.333 C 780.081 254.333 776.583 255.835 775.137 259.108 L 779.277 260.829 C 780.168 259.108 781.802 258.522 783.529 258.522 C 785.948 258.522 788.391 259.969 788.448 262.55 L 788.448 262.88 C 787.612 262.406 785.779 261.683 783.585 261.683 C 779.115 261.683 774.582 264.127 774.582 268.709 C 774.582 272.905 778.248 275.598 782.332 275.598 C 785.467 275.598 787.194 274.183 788.273 272.544 L 788.441 272.544 L 788.441 274.963 L 792.943 274.963 L 792.943 262.993 C 792.943 257.419 788.803 254.333 783.472 254.333 Z M 782.886 271.446 C 781.359 271.446 779.221 270.698 779.221 268.778 C 779.221 266.359 781.889 265.443 784.164 265.443 C 786.222 265.443 787.194 265.885 788.416 266.496 C 788.08 269.302 785.711 271.421 782.886 271.446 Z M 809.364 255 L 804.002 268.554 L 803.834 268.554 L 798.279 255 L 793.254 255 L 801.59 273.946 L 796.839 284.476 L 801.702 284.476 L 814.526 255 C 814.526 255 809.364 255 809.364 255 Z M 767.332 275 L 772.001 275 L 772.001 243.753 L 767.332 243.753 L 767.332 275 Z" style="clip-rule: evenodd; fill: rgb(255, 255, 255); fill-rule: evenodd;"></path>
    <path class="st4" d="M 526.085 218.834 C 525.362 219.613 524.944 220.804 524.944 222.363 L 524.944 277.643 C 524.944 279.202 525.362 280.393 526.11 281.141 L 526.303 281.309 L 557.276 250.337 L 557.276 249.645 L 526.278 218.666 C 526.278 218.666 526.085 218.834 526.085 218.834 Z" style="clip-rule: evenodd; fill: url(#SVGID_1_); fill-rule: evenodd;"></path>
    <path class="st5" d="M 567.581 260.692 L 557.251 250.362 L 557.251 249.638 L 567.581 239.308 L 567.805 239.445 L 580.025 246.39 C 583.522 248.36 583.522 251.615 580.025 253.61 L 567.805 260.555 C 567.805 260.555 567.581 260.692 567.581 260.692 Z" style="clip-rule: evenodd; fill: url(#SVGID_2_); fill-rule: evenodd;"></path>
    <path class="st6" d="M 567.805 260.555 L 557.251 250 L 526.085 281.166 C 527.226 282.388 529.14 282.525 531.278 281.334 L 567.805 260.555" style="clip-rule: evenodd; fill: url(#SVGID_3_); fill-rule: evenodd;"></path>
    <path class="st7" d="M 567.805 239.445 L 531.278 218.697 C 529.14 217.475 527.219 217.643 526.085 218.865 L 557.251 250 L 567.805 239.445 Z" style="clip-rule: evenodd; fill: url(#SVGID_4_); fill-rule: evenodd;"></path>
    <path class="st8" d="M 567.581 260.33 L 531.303 280.941 C 529.277 282.107 527.469 282.026 526.303 280.966 L 526.11 281.16 L 526.303 281.328 C 527.469 282.382 529.277 282.469 531.303 281.303 L 567.83 260.555 C 567.83 260.555 567.581 260.33 567.581 260.33 Z" style="clip-rule: evenodd; fill-rule: evenodd; opacity: 0.2;"></path>
    <path class="st9" d="M 580.025 253.248 L 567.55 260.33 L 567.774 260.555 L 579.994 253.61 C 581.746 252.612 582.606 251.303 582.606 250 C 582.5 251.197 581.608 252.332 580.025 253.248 Z" style="clip-rule: evenodd; fill-rule: evenodd; opacity: 0.12;"></path>
    <path class="st10" d="M 531.278 219.059 L 580.025 246.752 C 581.608 247.643 582.5 248.809 582.637 250 C 582.637 248.697 581.777 247.388 580.025 246.39 L 531.278 218.697 C 527.781 216.696 524.944 218.367 524.944 222.363 L 524.944 222.724 C 524.944 218.722 527.781 217.082 531.278 219.059 Z" style="clip-rule: evenodd; fill: rgb(255, 255, 255); fill-rule: evenodd; opacity: 0.25;"></path>
  </g>
</svg>
