<svg width="100" height="100" viewBox="0 0 100 100" fill="none" xmlns="http://www.w3.org/2000/svg">
    <rect id="qr" x="13" y="18" width="74" height="74" fill="#CCEFF0"></rect>
    <path d="M25 0H75V6C75 8.20914 73.2091 10 71 10H29C26.7909 10 25 8.20914 25 6V0Z" fill="#000000"></path>
    <path d="M 12 0 L 88 0 C 91.242 0.044 94.369 1.398 96.485 3.515 C 98.602 5.631 99.956 8.758 100 12 L 100 100 L 98 100 L 98 12 C 98.044 9.167 96.936 6.794 95.071 4.929 C 93.206 3.064 90.833 1.956 88 2 L 12 2 C 9.167 1.956 6.794 3.064 4.929 4.929 C 3.064 6.794 1.956 9.167 2 12 L 2 100 L 0 100 L 0 12 C 0.044 8.758 1.398 5.631 3.515 3.515 C 5.631 1.398 8.758 0.044 12 0 Z" fill="#000000"></path>
    <path d="M21 2H25V6C25 6 24.8732 3.87324 24 3C23.1268 2.12676 21 2 21 2Z" fill="#000000"></path>
    <path d="M75 6L75 2L79 2C79 2 76.8732 2.12676 76 3C75.1268 3.87324 75 6 75 6Z" fill="#000000"></path>
</svg>