<svg viewBox="0 0 80 100" width="80" height="100" xmlns="http://www.w3.org/2000/svg">
    <defs>
        <style>
            @import url('https://fonts.googleapis.com/css2?family=Open+Sans:wght@700&amp;display=swap');
        </style>
    </defs>
    <path d="M 0 10 C 0.044 7.31 1.174 4.684 2.929 2.929 C 4.684 1.174 7.31 0.044 10 0 L 70 0 C 72.69 0.044 75.316 1.174 77.071 2.929 C 78.826 4.684 79.956 7.31 80 10 L 80 100 L 67.913 79.855 C 66.108 76.72 62.956 74.935 59.338 75 L 10 75 C 7.31 74.956 4.684 73.826 2.929 72.071 C 1.174 70.316 0.044 67.69 0 65 Z M 2 65 C 1.956 67.281 2.84 69.154 4.343 70.657 C 5.846 72.16 7.719 73.044 10 73 L 59.338 73 C 63.448 73.065 67.458 75.335 69.628 78.826 L 78 92.779 L 78 10 C 78.044 7.719 77.16 5.846 75.657 4.343 C 74.154 2.84 72.281 1.956 70 2 L 10 2 C 7.719 1.956 5.846 2.84 4.343 4.343 C 2.84 5.846 1.956 7.719 2 10 Z"></path>
    <text font-family="Open Sans" font-size="12" font-weight="700" x="35" text-anchor="middle" y="88" dy="0.4em">SCAN ME</text>
    <rect id="qr" x="10" y="7" width="60" height="60" fill="#CCEFF0"></rect>
</svg>
